# xmcd
#
# Track frame offsets:
#	150
#	14445
#	30343
#	45550
#	57914
#	73548
#	90939
#	105438
#	121896
#	136626
#	154075
#	170329
#	184785
#	200882
#	214459
#	229847
#	240365
#	256396
#	270031
#	281305
#
# Disc length: 4039 seconds
#
# Revision: 0
# Processed by: cddbd v1.5.2PL0 Copyright (c) Steve Scherf et al.
# Submitted via: audiograbber 1.83.01
#
DISCID=020fc514
DTITLE=Divese - Mallorca - Die aktuellen Hits der Saison
DYEAR=2008
DGENRE=Schlager
TTITLE0=Tim Toupet feat. DJ Padre - Humba Täterä (Stadion Mix)
TTITLE1=Paul Zappel feat. DJ Henning - Joana - Du
TTITLE2=Chriss Tuxi - Bierkönig Nächte sind lang
TTITLE3=Krümel - Mädchen, Mädchen
TTITLE4=Almklausi feat. Tobee - Hoch die Tassen
TTITLE5=Chris Marlow - Santa Maria
TTITLE6=Aleks Schmidt - Alles was ich brauche bist Du
TTITLE7=Partynator - Una Estrella
TTITLE8=Lukas Bach - Nur ein Sommermärchen (Radio Version)
TTITLE9=Zascha - Zascha´s Schunkel-HITMIX
TTITLE10=Hugo Bär - Jetzt oder Nie
TTITLE11=Die 3 Colonias meet Chriss Tuxi - Halt´s Maul, sei still - (ich geh He
TTITLE11=im, wann ich will) (PARTY-Remix)
TTITLE12=Stefan Peters - Für dieses Leben würd ich sterben
TTITLE13=Günther Sturm - Hand auf´s Herz
TTITLE14=Claus Marcus - Ich hab gedacht, es war Liebe (Fox-Mix)
TTITLE15=Mike Krüger - Schiri, ich weiß nich´ wo mein Auto steht
TTITLE16=Robert Wunderlich - Wickie Fieber
TTITLE17=Stefan Peters feat. Gotthilf Fischer - Ein Stern der über Deutschland 
TTITLE17=steht
TTITLE18=Ralf Schmitz - Shaun, das Schaf (Original Version)
TTITLE19=Peter Wackel - Ü30-Party-HITMIX
EXTD=
EXTT0=
EXTT1=
EXTT2=
EXTT3=
EXTT4=
EXTT5=
EXTT6=
EXTT7=
EXTT8=
EXTT9=
EXTT10=
EXTT11=
EXTT12=
EXTT13=
EXTT14=
EXTT15=
EXTT16=
EXTT17=
EXTT18=
EXTT19=
PLAYORDER=
